# xmcd
#
# Track frame offsets: 
#        150
#        14167
#        29652
#        45400
#        58515
#        68355
#        80225
#        93645
#        108387
#        124632
#        139730
#        149132
#        169392
#        184692
#
# Disc length: 2658 seconds
#
# Revision: 0
# Processed by: cddbd v1.5.2PL0 Copyright (c) Steve Scherf et al.
# Submitted via: ExactAudioCopy v0.95b4
#
DISCID=cf0a600e
DTITLE=EDITH PIAF - L' ESSENTIEL
DYEAR=2003
DGENRE=Blues
TTITLE0=LA VIE EN ROSE
TTITLE1=HYMNE A L'AMOUR
TTITLE2=EXODUS
TTITLE3=AU BAL DE LA CHANCE
TTITLE4=JOHNNY TU N'ES PAS UN ANGE
TTITLE5=CRI DU COEUR
TTITLE6=C'EST A HAMBOURG
TTITLE7=PADAM PADAM
TTITLE8=L'ACCORDEONISTE
TTITLE9=JE SAIS COMMENT
TTITLE10=L' HOMME A LA MOTO
TTITLE11=MILORD
TTITLE12=MON DIEU
TTITLE13=EDEN BLUES
EXTD=
EXTT0=
EXTT1=
EXTT2=
EXTT3=
EXTT4=
EXTT5=
EXTT6=
EXTT7=
EXTT8=
EXTT9=
EXTT10=
EXTT11=
EXTT12=
EXTT13=
PLAYORDER=
